<?xml version="1.0" encoding="UTF-8" standalone="no"?>
<svg
   xmlns:dc="http://purl.org/dc/elements/1.1/"
   xmlns:cc="http://creativecommons.org/ns#"
   xmlns:rdf="http://www.w3.org/1999/02/22-rdf-syntax-ns#"
   xmlns:svg="http://www.w3.org/2000/svg"
   xmlns="http://www.w3.org/2000/svg"
   xmlns:sodipodi="http://sodipodi.sourceforge.net/DTD/sodipodi-0.dtd"
   xmlns:inkscape="http://www.inkscape.org/namespaces/inkscape"
   version="1.1"
   width="512"
   height="512"
   x="0"
   y="0"
   viewBox="0 0 512 512"
   style="enable-background:new 0 0 512 512"
   xml:space="preserve"
   class=""
   id="svg34"
   sodipodi:docname="metodo-grafico.svg"
   inkscape:version="1.0.1 (3bc2e813f5, 2020-09-07)"><metadata
     id="metadata40"><rdf:RDF><cc:Work
         rdf:about=""><dc:format>image/svg+xml</dc:format><dc:type
           rdf:resource="http://purl.org/dc/dcmitype/StillImage" /><dc:title></dc:title></cc:Work></rdf:RDF></metadata><defs
     id="defs38" /><sodipodi:namedview
     pagecolor="#ffffff"
     bordercolor="#666666"
     borderopacity="1"
     objecttolerance="10"
     gridtolerance="10"
     guidetolerance="10"
     inkscape:pageopacity="0"
     inkscape:pageshadow="2"
     inkscape:window-width="1366"
     inkscape:window-height="705"
     id="namedview36"
     showgrid="false"
     inkscape:zoom="0.74301455"
     inkscape:cx="151.93231"
     inkscape:cy="265.4607"
     inkscape:window-x="-8"
     inkscape:window-y="32"
     inkscape:window-maximized="1"
     inkscape:current-layer="svg34" /><g
     id="g32"
     transform="matrix(0.72862454,0,0,0.74349442,66.290537,63.148576)"><g
       fill="#b0e7f8"
       id="g18"><path
         d="m 438,10 h 64 v 64 h -64 z m 0,0"
         fill="#b0e7f8"
         data-original="#b0e7f8"
         id="path2" /><path
         d="m 10,438 h 64 v 64 H 10 Z m 0,0"
         fill="#b0e7f8"
         data-original="#b0e7f8"
         id="path4" /><path
         d="m 438,438 h 64 v 64 h -64 z m 0,0"
         fill="#b0e7f8"
         data-original="#b0e7f8"
         id="path6" /><path
         d="M 10,10 H 74 V 74 H 10 Z m 0,0"
         fill="#b0e7f8"
         data-original="#b0e7f8"
         id="path8" /><path
         d="m 224,10 h 64 v 64 h -64 z m 0,0"
         fill="#b0e7f8"
         data-original="#b0e7f8"
         id="path10" /><path
         d="m 224,438 h 64 v 64 h -64 z m 0,0"
         fill="#b0e7f8"
         data-original="#b0e7f8"
         id="path12" /><path
         d="m 10,224 h 64 v 64 H 10 Z m 0,0"
         fill="#b0e7f8"
         data-original="#b0e7f8"
         id="path14" /><path
         d="m 438,224 h 64 v 64 h -64 z m 0,0"
         fill="#b0e7f8"
         data-original="#b0e7f8"
         id="path16" /></g><path
       d="m 224,224 h 64 v 64 h -64 z m 0,0"
       fill="#91def5"
       data-original="#91def5"
       class=""
       id="path20" /><path
       d="m 74,84 c 5.523438,0 10,-4.476562 10,-10 V 53.113281 H 214 V 74 c 0,5.523438 4.47656,10 10,10 h 64 c 5.52344,0 10,-4.476562 10,-10 V 53.113281 h 60 c 5.52344,0 10,-4.476562 10,-10 0,-5.523437 -4.47656,-10 -10,-10 H 298 V 10 C 298,4.476562 293.52344,0 288,0 h -64 c -5.52344,0 -10,4.476562 -10,10 V 33.113281 H 84 V 10 C 84,4.476562 79.523438,0 74,0 H 10 C 4.476562,0 0,4.476562 0,10 v 64 c 0,5.523438 4.476562,10 10,10 H 33.933594 V 214 H 10 c -5.523438,0 -10,4.47656 -10,10 v 64 c 0,5.52344 4.476562,10 10,10 H 33.933594 V 428 H 10 c -5.523438,0 -10,4.47656 -10,10 v 64 c 0,5.52344 4.476562,10 10,10 h 64 c 5.523438,0 10,-4.47656 10,-10 v -64 c 0,-5.52344 -4.476562,-10 -10,-10 H 53.933594 V 298 H 74 c 5.523438,0 10,-4.47656 10,-10 v -64 c 0,-5.52344 -4.476562,-10 -10,-10 H 53.933594 V 84 Z M 234,20 h 44 V 64 H 234 Z M 64,492 H 20 V 448 H 64 Z M 64,278 H 20 V 234 H 64 Z M 20,20 H 64 V 64 H 20 Z m 0,0"
       fill="#000000"
       data-original="#000000"
       class=""
       id="path22" /><path
       d="m 502,84 c 5.52344,0 10,-4.476562 10,-10 V 10 C 512,4.476562 507.52344,0 502,0 h -64 c -5.52344,0 -10,4.476562 -10,10 v 64 c 0,5.523438 4.47656,10 10,10 h 23.93359 V 214 H 438 c -5.52344,0 -10,4.47656 -10,10 v 64 c 0,5.52344 4.47656,10 10,10 h 23.93359 V 428 H 438 c -5.52344,0 -10,4.47656 -10,10 v 22 H 298 v -22 c 0,-5.52344 -4.47656,-10 -10,-10 h -64 c -5.52344,0 -10,4.47656 -10,10 v 22 h -60 c -5.52344,0 -10,4.47656 -10,10 0,5.52344 4.47656,10 10,10 h 60 v 22 c 0,5.52344 4.47656,10 10,10 h 64 c 5.52344,0 10,-4.47656 10,-10 v -22 h 130 v 22 c 0,5.52344 4.47656,10 10,10 h 64 c 5.52344,0 10,-4.47656 10,-10 v -64 c 0,-5.52344 -4.47656,-10 -10,-10 H 481.93359 V 298 H 502 c 5.52344,0 10,-4.47656 10,-10 v -64 c 0,-5.52344 -4.47656,-10 -10,-10 H 481.93359 V 84 Z M 278,492 h -44 v -44 h 44 z m 214,0 h -44 v -44 h 44 z m 0,-214 h -44 v -44 h 44 z M 448,20 h 44 v 44 h -44 z m 0,0"
       fill="#000000"
       data-original="#000000"
       class=""
       id="path24" /><path
       d="m 288,214 h -64 c -5.52344,0 -10,4.47656 -10,10 v 64 c 0,5.52344 4.47656,10 10,10 h 64 c 5.52344,0 10,-4.47656 10,-10 v -64 c 0,-5.52344 -4.47656,-10 -10,-10 z m -10,64 h -44 v -44 h 44 z m 0,0"
       fill="#000000"
       data-original="#000000"
       class=""
       id="path26" /><path
       d="m 398,53.109375 c 2.62891,0 5.21094,-1.058594 7.07031,-2.917969 C 406.92969,48.320312 408,45.738281 408,43.109375 c 0,-2.628906 -1.07031,-5.210937 -2.92969,-7.070313 -1.85937,-1.859374 -4.4414,-2.929687 -7.07031,-2.929687 -2.62891,0 -5.21094,1.070313 -7.07031,2.929687 C 389.07031,37.898438 388,40.480469 388,43.109375 c 0,2.628906 1.07031,5.210937 2.92969,7.082031 1.85937,1.859375 4.4414,2.917969 7.07031,2.917969 z m 0,0"
       fill="#000000"
       data-original="#000000"
       class=""
       id="path28" /><path
       d="m 114,460 c -2.62891,0 -5.21094,1.07031 -7.07031,2.92969 C 105.07031,464.78906 104,467.37109 104,470 c 0,2.62891 1.07031,5.21094 2.92969,7.07031 C 108.78906,478.92969 111.37109,480 114,480 c 2.62891,0 5.21094,-1.07031 7.07031,-2.92969 C 122.92969,475.21094 124,472.62891 124,470 c 0,-2.62891 -1.07031,-5.21094 -2.92969,-7.07031 C 119.21094,461.07031 116.62891,460 114,460 Z m 0,0"
       fill="#000000"
       data-original="#000000"
       class=""
       id="path30" /></g></svg>
