<?xml version="1.0" encoding="UTF-8" standalone="no"?>
<svg
   xmlns:dc="http://purl.org/dc/elements/1.1/"
   xmlns:cc="http://creativecommons.org/ns#"
   xmlns:rdf="http://www.w3.org/1999/02/22-rdf-syntax-ns#"
   xmlns:svg="http://www.w3.org/2000/svg"
   xmlns="http://www.w3.org/2000/svg"
   xmlns:sodipodi="http://sodipodi.sourceforge.net/DTD/sodipodi-0.dtd"
   xmlns:inkscape="http://www.inkscape.org/namespaces/inkscape"
   id="Capa_1"
   enable-background="new 0 0 512 512"
   height="512"
   viewBox="0 0 512 512"
   width="512"
   version="1.1"
   sodipodi:docname="programacion.svg"
   inkscape:version="1.0.1 (3bc2e813f5, 2020-09-07)">
  <metadata
     id="metadata75">
    <rdf:RDF>
      <cc:Work
         rdf:about="">
        <dc:format>image/svg+xml</dc:format>
        <dc:type
           rdf:resource="http://purl.org/dc/dcmitype/StillImage" />
      </cc:Work>
    </rdf:RDF>
  </metadata>
  <defs
     id="defs73" />
  <sodipodi:namedview
     pagecolor="#ffffff"
     bordercolor="#666666"
     borderopacity="1"
     objecttolerance="10"
     gridtolerance="10"
     guidetolerance="10"
     inkscape:pageopacity="0"
     inkscape:pageshadow="2"
     inkscape:window-width="1366"
     inkscape:window-height="705"
     id="namedview71"
     showgrid="false"
     inkscape:zoom="0.74301455"
     inkscape:cx="219.73399"
     inkscape:cy="301.95083"
     inkscape:window-x="-8"
     inkscape:window-y="32"
     inkscape:window-maximized="1"
     inkscape:current-layer="Capa_1" />
  <g
     id="g68"
     transform="matrix(0.78029552,0,0,0.81765706,57.590216,48.794245)">
    <g
       id="g42">
      <path
         d="M 351.74,179.81 V 388.6 l -136.23,49.21 c -0.06,-0.56 0.04,-1.14 0.32,-1.67 L 349.08,181.42 c 0.56,-1.08 1.61,-1.61 2.66,-1.61 z"
         fill="#ffb54e"
         id="path2" />
      <path
         d="M 487.97,437.81 351.74,388.6 V 179.81 c 1.05,0 2.1,0.53 2.66,1.61 l 133.25,254.72 c 0.28,0.53 0.38,1.11 0.32,1.67 z"
         fill="#ffb54e"
         id="path4" />
      <path
         d="m 351.74,388.6 v 100.54 c -0.35,0 -0.7,-0.06 -1.03,-0.18 L 217.46,440.35 c -1.13,-0.41 -1.85,-1.43 -1.95,-2.54 z"
         fill="#ffa730"
         id="path6" />
      <path
         d="m 487.97,437.81 c -0.1,1.11 -0.82,2.13 -1.95,2.54 l -133.25,48.61 c -0.33,0.12 -0.68,0.18 -1.03,0.18 V 388.6 Z"
         fill="#ffa730"
         id="path8" />
      <g
         id="g14">
        <path
           d="m 499.5,424 h -13.04 l -6.002,1 c -2.761,0 -5,2.239 -5,5 v 18 c 0,2.761 2.239,5 5,5 H 498.5 c 2.761,0 5,-2.239 5,-5 l 1,-6 v -13 c 0,-2.761 -2.239,-5 -5,-5 z"
           fill="#5f6c75"
           id="path10" />
        <path
           d="m 504.5,442 v 7 c 0,2.761 -2.239,5 -5,5 h -20.04 c -2.761,0 -5,-2.239 -5,-5 v -20 c 0,-2.761 2.239,-5 5,-5 h 7 v 10 c 0,4.418 3.582,8 8,8 z"
           fill="#4e5a61"
           id="path12" />
      </g>
      <g
         id="g20">
        <path
           d="m 224.541,424 h -13.04 l -6.002,1 c -2.761,0 -5,2.239 -5,5 v 18 c 0,2.761 2.239,5 5,5 h 18.042 c 2.761,0 5,-2.239 5,-5 l 1,-6 v -13 c 0,-2.761 -2.239,-5 -5,-5 z"
           fill="#5f6c75"
           id="path16" />
        <path
           d="m 229.541,442 v 7 c 0,2.761 -2.239,5 -5,5 h -20.04 c -2.761,0 -5,-2.239 -5,-5 v -20 c 0,-2.761 2.239,-5 5,-5 h 7 v 10 c 0,4.418 3.582,8 8,8 z"
           fill="#4e5a61"
           id="path18" />
      </g>
      <g
         id="g26">
        <path
           d="m 362.02,474.5 h -13.04 l -6.002,1 c -2.761,0 -5,2.239 -5,5 v 18 c 0,2.761 2.239,5 5,5 h 18.042 c 2.761,0 5,-2.239 5,-5 l 1,-6 v -13 c 0,-2.761 -2.239,-5 -5,-5 z"
           fill="#5f6c75"
           id="path22" />
        <path
           d="m 367.02,492.5 v 7 c 0,2.761 -2.239,5 -5,5 h -20.04 c -2.761,0 -5,-2.239 -5,-5 v -20 c 0,-2.761 2.239,-5 5,-5 h 7 v 10 c 0,4.418 3.582,8 8,8 z"
           fill="#4e5a61"
           id="path24" />
      </g>
      <g
         id="g32">
        <path
           d="m 362.02,161.5 h -13.04 l -6.002,1 c -2.761,0 -5,2.239 -5,5 v 18 c 0,2.761 2.239,5 5,5 h 18.042 c 2.761,0 5,-2.239 5,-5 l 1,-6 v -13 c 0,-2.761 -2.239,-5 -5,-5 z"
           fill="#5f6c75"
           id="path28" />
        <path
           d="m 367.02,179.5 v 7 c 0,2.761 -2.239,5 -5,5 h -20.04 c -2.761,0 -5,-2.239 -5,-5 v -20 c 0,-2.761 2.239,-5 5,-5 h 7 v 10 c 0,4.418 3.582,8 8,8 z"
           fill="#4e5a61"
           id="path30" />
      </g>
      <path
         d="m 290.5,17.5 v 50 L 142.688,79.697 7.5,67.5 l 1,-49 c 0,-5.52 4.48,-10 10,-10 l 6,-1 h 256 c 5.52,0 10,4.48 10,10 z"
         fill="#5f6c75"
         id="path34" />
      <path
         d="m 290.5,67.5 v 277 c 0,5.52 -2.64,6.245 -8.16,6.245 H 23.383 c -5.52,0 -10,-4.48 -10,-10 L 9.936,67.5 Z"
         fill="#f7f9fa"
         id="path36" />
      <path
         d="m 24.5,7.5 v 60 L 16,70.404 7.5,67.5 v -50 c 0,-5.52 4.48,-10 10,-10 z"
         fill="#4e5a61"
         id="path38" />
      <path
         d="m 290.5,336.97 v 7.351 c 0,5.518 -4.47,9.994 -9.989,10 L 120.75,354.5 H 17.5 c -5.523,0 -10,-4.477 -10,-10 v -277 h 17 v 256 c 0,7.732 6.268,14 14,14 h 197 c 1,0 24.33,-0.18 55,-0.53 z"
         fill="#e9edf1"
         id="path40" />
    </g>
    <g
       id="g66">
      <path
         d="M 499.5,416.5 H 485.843 L 432.488,314.51 c -1.92,-3.67 -6.452,-5.088 -10.122,-3.169 -3.67,1.92 -5.089,6.452 -3.169,10.122 l 51.568,98.574 c -0.848,0.823 -1.577,1.764 -2.166,2.797 L 359.24,383.33 V 206.852 l 43.811,83.746 c 1.954,3.564 5.442,5.415 10.122,3.169 3.67,-1.92 5.089,-6.452 3.169,-10.122 l -46.049,-88.026 c 2.441,-2.283 3.979,-5.521 3.979,-9.12 v -20 c 0,-6.893 -5.607,-12.5 -12.5,-12.5 H 341.73 c -6.893,0 -12.5,5.607 -12.5,12.5 v 20 c 0,3.591 1.531,6.825 3.965,9.107 L 298,262.881 V 17.5 C 298,7.851 290.149,0 280.5,0 H 17.5 C 7.851,0 0,7.851 0,17.5 v 236.394 c 0,4.142 3.358,7.5 7.5,7.5 4.142,0 7.5,-3.358 7.5,-7.5 V 75 h 176.468 c 4.142,0 7.5,-3.358 7.5,-7.5 0,-4.142 -3.358,-7.5 -7.5,-7.5 H 15 V 17.5 C 15,16.122 16.122,15 17.5,15 h 263 c 1.378,0 2.5,1.122 2.5,2.5 V 60 h -56.17 c -4.142,0 -7.5,3.358 -7.5,7.5 0,4.142 3.358,7.5 7.5,7.5 H 283 v 269.5 c 0,1.378 -1.122,2.5 -2.5,2.5 h -263 c -1.378,0 -2.5,-1.122 -2.5,-2.5 v -55.458 c 0,-4.142 -3.358,-7.5 -7.5,-7.5 -4.142,0 -7.5,3.358 -7.5,7.5 V 344.5 c 0,9.649 7.851,17.5 17.5,17.5 h 228.647 l -28.511,54.5 H 204.5 c -6.893,0 -12.5,5.607 -12.5,12.5 v 20 c 0,6.893 5.607,12.5 12.5,12.5 h 20.042 c 4.749,0 8.886,-2.662 11.001,-6.572 l 29.172,10.643 c 0.848,0.31 1.716,0.456 2.57,0.456 3.062,0 5.936,-1.889 7.046,-4.932 1.419,-3.891 -0.584,-8.196 -4.476,-9.616 L 237.041,438.756 344.239,399.278 V 467 h -2.261 c -4.818,0 -9,2.744 -11.086,6.747 l -28.079,-10.244 c -3.89,-1.418 -8.196,0.584 -9.616,4.476 -1.419,3.891 0.584,8.196 4.476,9.616 l 31.806,11.604 V 499.5 c 0,6.893 5.607,12.5 12.5,12.5 h 20.042 c 6.893,0 12.5,-5.607 12.5,-12.5 v -10.492 l 93.858,-34.241 c 2.088,3.996 6.267,6.733 11.079,6.733 H 499.5 c 6.893,0 12.5,-5.607 12.5,-12.5 v -20 c 0,-6.893 -5.607,-12.5 -12.5,-12.5 z m -277.458,30 H 207 v -15 h 15.042 z M 344.229,169 h 15.042 v 15 h -15.042 z m 0.011,214.33 -108.932,39.35 c -0.654,-1.11 -1.473,-2.107 -2.426,-2.964 L 263.076,362 H 280.5 c 9.649,0 17.5,-7.851 17.5,-17.5 v -49.259 l 46.24,-88.389 z M 359.521,497 h -15.042 v -15 h 15.042 z m 13.508,-23.415 C 370.916,469.668 366.775,467 362.021,467 h -2.781 v -67.721 l 107.719,39.478 z M 497,446.5 h -15.042 v -15 H 497 Z"
         id="path44" />
      <path
         d="m 37.5,105 h 205 c 4.142,0 7.5,-3.358 7.5,-7.5 0,-4.142 -3.358,-7.5 -7.5,-7.5 h -205 c -4.142,0 -7.5,3.358 -7.5,7.5 0,4.142 3.358,7.5 7.5,7.5 z"
         id="path46" />
      <path
         d="m 37.5,135 h 86 c 4.142,0 7.5,-3.358 7.5,-7.5 0,-4.142 -3.358,-7.5 -7.5,-7.5 h -86 c -4.142,0 -7.5,3.358 -7.5,7.5 0,4.142 3.358,7.5 7.5,7.5 z"
         id="path48" />
      <path
         d="m 37.5,165 h 205 c 4.142,0 7.5,-3.358 7.5,-7.5 0,-4.142 -3.358,-7.5 -7.5,-7.5 h -205 c -4.142,0 -7.5,3.358 -7.5,7.5 0,4.142 3.358,7.5 7.5,7.5 z"
         id="path50" />
      <path
         d="m 37.5,195 h 170 c 4.142,0 7.5,-3.358 7.5,-7.5 0,-4.142 -3.358,-7.5 -7.5,-7.5 h -170 c -4.142,0 -7.5,3.358 -7.5,7.5 0,4.142 3.358,7.5 7.5,7.5 z"
         id="path52" />
      <path
         d="m 154.625,237.213 -25.611,64 c -1.539,3.846 0.331,8.211 4.177,9.75 2.781,1.027 7.723,0.436 9.75,-4.177 l 25.611,-64 c 1.539,-3.846 -0.331,-8.211 -4.177,-9.75 -3.846,-1.537 -8.21,0.333 -9.75,4.177 z"
         id="path54" />
      <path
         d="m 187.585,307.411 c 2.364,1.6 7.909,1.504 10.256,-2.704 l 17.198,-29.51 c 1.384,-2.375 1.358,-5.316 -0.067,-7.666 l -17.198,-28.353 c -2.148,-3.541 -6.76,-4.671 -10.302,-2.523 -3.542,2.148 -4.671,6.761 -2.523,10.302 l 14.885,24.54 -14.953,25.657 c -2.085,3.579 -0.875,8.171 2.704,10.257 z"
         id="path56" />
      <path
         d="m 109.528,236.656 c -3.542,-2.147 -8.154,-1.018 -10.302,2.523 l -17.198,28.353 c -1.425,2.35 -1.451,5.292 -0.067,7.666 l 17.198,29.51 c 2.237,2.752 5.252,5.103 10.256,2.704 3.579,-2.086 4.789,-6.678 2.704,-10.256 l -14.953,-25.657 14.885,-24.54 c 2.148,-3.542 1.019,-8.154 -2.523,-10.303 z"
         id="path58" />
      <path
         d="m 37.5,29.5 c -4.142,0 -7.5,3.358 -7.5,7.5 0,4.142 3.358,7.5 7.5,7.5 h 133 c 4.142,0 7.5,-3.358 7.5,-7.5 0,-4.142 -3.358,-7.5 -7.5,-7.5 z"
         id="path60" />
      <circle
         cx="231"
         cy="37"
         r="7.5"
         id="circle62" />
      <circle
         cx="261"
         cy="37"
         r="7.5"
         id="circle64" />
    </g>
  </g>
</svg>
