<?xml version="1.0" encoding="UTF-8" standalone="no"?>
<svg
   xmlns:dc="http://purl.org/dc/elements/1.1/"
   xmlns:cc="http://creativecommons.org/ns#"
   xmlns:rdf="http://www.w3.org/1999/02/22-rdf-syntax-ns#"
   xmlns:svg="http://www.w3.org/2000/svg"
   xmlns="http://www.w3.org/2000/svg"
   xmlns:sodipodi="http://sodipodi.sourceforge.net/DTD/sodipodi-0.dtd"
   xmlns:inkscape="http://www.inkscape.org/namespaces/inkscape"
   version="1.1"
   width="512"
   height="512"
   x="0"
   y="0"
   viewBox="0 0 512 512"
   style="enable-background:new 0 0 512 512"
   xml:space="preserve"
   class=""
   id="svg42"
   sodipodi:docname="redes.svg"
   inkscape:version="1.0.1 (3bc2e813f5, 2020-09-07)"><metadata
     id="metadata48"><rdf:RDF><cc:Work
         rdf:about=""><dc:format>image/svg+xml</dc:format><dc:type
           rdf:resource="http://purl.org/dc/dcmitype/StillImage" /></cc:Work></rdf:RDF></metadata><defs
     id="defs46" /><sodipodi:namedview
     pagecolor="#ffffff"
     bordercolor="#666666"
     borderopacity="1"
     objecttolerance="10"
     gridtolerance="10"
     guidetolerance="10"
     inkscape:pageopacity="0"
     inkscape:pageshadow="2"
     inkscape:window-width="1366"
     inkscape:window-height="705"
     id="namedview44"
     showgrid="false"
     inkscape:zoom="0.52539063"
     inkscape:cx="243.33966"
     inkscape:cy="343.31255"
     inkscape:window-x="-8"
     inkscape:window-y="32"
     inkscape:window-maximized="1"
     inkscape:current-layer="g40" /><g
     id="g40"
     transform="scale(0.78438662)"><circle
       cx="418.7962"
       cy="546.7962"
       fill="#fedf84"
       r="30"
       data-original="#fedf84"
       class=""
       id="circle2" /><path
       d="m 448.79621,546.79621 c 0,27.042 -33.057,40.092 -51.57,20.83 26.042,3.483 46.231,-22.135 36.24,-46.99 9.15,5.13 15.33,14.92 15.33,26.16 z"
       fill="#fed66b"
       data-original="#fed66b"
       class=""
       id="path4" /><circle
       cx="238.7962"
       cy="546.7962"
       fill="#fedf84"
       r="30"
       data-original="#fedf84"
       class=""
       id="circle6" /><path
       d="m 268.79621,546.79621 c 0,27.07 -33.069,40.079 -51.57,20.83 26.042,3.483 46.231,-22.135 36.24,-46.99 9.15,5.13 15.33,14.92 15.33,26.16 z"
       fill="#fed66b"
       data-original="#fed66b"
       class=""
       id="path8" /><circle
       cx="418.7962"
       cy="110.79621"
       fill="#fedf84"
       r="30"
       data-original="#fedf84"
       class=""
       id="circle10" /><path
       d="m 448.79621,110.79621 c 0,27.042 -33.057,40.092 -51.57,20.83 26.042,3.483 46.231,-22.135 36.24,-46.990002 9.15,5.13 15.33,14.92 15.33,26.160002 z"
       fill="#fed66b"
       data-original="#fed66b"
       class=""
       id="path12" /><circle
       cx="238.7962"
       cy="110.79621"
       fill="#fedf84"
       r="30"
       data-original="#fedf84"
       class=""
       id="circle14" /><path
       d="m 268.79621,110.79621 c 0,27.07 -33.069,40.079 -51.57,20.83 26.042,3.483 46.231,-22.135 36.24,-46.990002 9.15,5.13 15.33,14.92 15.33,26.160002 z"
       fill="#fed66b"
       data-original="#fed66b"
       class=""
       id="path16" /><circle
       cx="546.7962"
       cy="418.7962"
       fill="#fedf84"
       r="30"
       data-original="#fedf84"
       class=""
       id="circle18" /><path
       d="m 576.79621,418.79621 c 0,27.07 -33.069,40.079 -51.57,20.83 26.042,3.483 46.231,-22.135 36.24,-46.99 9.15,5.13 15.33,14.92 15.33,26.16 z"
       fill="#fed66b"
       data-original="#fed66b"
       class=""
       id="path20" /><circle
       cx="546.7962"
       cy="238.7962"
       fill="#fedf84"
       r="30"
       data-original="#fedf84"
       class=""
       id="circle22" /><path
       d="m 576.79621,238.79621 c 0,27.042 -33.057,40.092 -51.57,20.83 26.042,3.483 46.231,-22.135 36.24,-46.99 9.15,5.13 15.33,14.92 15.33,26.16 z"
       fill="#fed66b"
       data-original="#fed66b"
       class=""
       id="path24" /><circle
       cx="110.79621"
       cy="238.7962"
       fill="#fedf84"
       r="30"
       data-original="#fedf84"
       class=""
       id="circle26" /><path
       d="m 140.79621,238.79621 c 0,27.07 -33.069,40.079 -51.570002,20.83 26.042002,3.483 46.231002,-22.135 36.240002,-46.99 9.15,5.13 15.33,14.92 15.33,26.16 z"
       fill="#fed66b"
       data-original="#fed66b"
       class=""
       id="path28" /><circle
       cx="110.79621"
       cy="418.7962"
       fill="#fedf84"
       r="30"
       data-original="#fedf84"
       class=""
       id="circle30" /><path
       d="m 140.79621,418.79621 c 0,27.07 -33.069,40.079 -51.570002,20.83 26.042002,3.483 46.231002,-22.135 36.240002,-46.99 9.15,5.13 15.33,14.92 15.33,26.16 z"
       fill="#fed66b"
       data-original="#fed66b"
       class=""
       id="path32" /><g
       fill="#2c2c3d"
       id="g38"
       transform="translate(72.796208,72.796208)"><path
         d="M 482,308.854 V 203.146 c 17.124,-3.685 30,-18.937 30,-37.146 0,-30.082 -33.375,-48.043 -58.413,-32.026 L 378.026,58.413 C 394.048,33.366 376.073,0 346,0 308.945,0 293.743,48.031 324.437,69.266 l -33.854,82.003 -57.626,-57.626 59.855,-24.875 c 4.08,-1.696 6.013,-6.378 4.317,-10.458 -1.696,-4.08 -6.377,-6.013 -10.458,-4.317 L 220.716,81.403 197.91,58.595 C 214.178,33.476 196.092,0 166,0 136.057,0 117.865,33.23 133.974,58.413 l -75.56,75.561 C 33.366,117.952 0,135.927 0,166 c 0,23.682 21.515,41.649 44.866,37.367 L 66.739,256 44.865,308.633 C 21.44,304.338 0,322.396 0,346 c 0,30.082 33.375,48.043 58.413,32.026 l 75.561,75.56 C 117.832,478.82 136.105,512 166,512 c 18.209,0 33.46,-12.876 37.145,-30 h 105.709 c 3.685,17.124 18.937,30 37.145,30 20.953,0 38,-17.047 38,-38 0,-20.953 -17.047,-38 -38,-38 -18.209,0 -33.46,12.876 -37.145,30 H 206.098 L 442.787,367.636 C 464.171,398.393 512,382.759 512,346 c 0,-18.209 -12.876,-33.46 -30,-37.146 z m -45.382,-136.076 -22.143,9.142 -45.816,-110.246 73.549,73.548 c -5.178,7.896 -7.386,17.638 -5.59,27.556 z m 6.117,14.785 c 5.409,7.818 13.668,13.517 23.265,15.583 V 305.904 L 420.615,196.696 Z m 8.394,124.252 -90.398,-90.398 45.094,-18.616 z M 496,166 c 0,12.131 -9.869,22 -22,22 -12.131,0 -22,-9.869 -22,-22 0,-12.131 9.869,-22 22,-22 12.131,0 22,9.869 22,22 z M 346,16 c 12.131,0 22,9.869 22,22 0,12.131 -9.869,22 -22,22 -12.131,0 -22,-9.869 -22,-22 0,-12.131 9.869,-22 22,-22 z m -6.778,59.382 c 4.541,0.822 9.032,0.83 13.644,-0.016 l 46.819,112.659 -51.205,21.14 -45.645,-45.646 z m -6.759,140.396 -61.723,25.482 25.482,-61.723 z M 159.135,75.367 c 9.685,1.775 19.413,-0.246 27.46,-5.457 l 18.136,18.136 -61.484,25.552 z m -36.833,46.935 -50.627,21.04 71.667,-71.668 z M 166,16 c 12.131,0 22,9.869 22,22 0,12.131 -9.869,22 -22,22 -12.131,0 -22,-9.869 -22,-22 0,-12.131 9.869,-22 22,-22 z M 16,166 c 0,-12.131 9.869,-22 22,-22 12.131,0 22,9.869 22,22 0,12.131 -9.869,22 -22,22 -12.131,0 -22,-9.869 -22,-22 z m 43.636,31.213 c 12.175,-8.465 18.46,-23.201 15.731,-38.079 l 38.231,-15.888 -38.195,91.907 z m 15.767,79.634 15.983,38.458 -22.12,9.132 c -2.605,-3.765 -5.871,-7.037 -9.63,-9.65 z m -0.021,62.374 22.143,-9.141 45.817,110.246 -73.55,-73.548 c 5.167,-7.88 7.389,-17.618 5.59,-27.557 z M 16,346 c 0,-12.131 9.869,-22 22,-22 12.131,0 22,9.869 22,22 0,12.131 -9.869,22 -22,22 -12.131,0 -22,-9.869 -22,-22 z m 150,150 c -12.131,0 -22,-9.869 -22,-22 0,-12.131 9.869,-22 22,-22 12.131,0 22,9.869 22,22 0,12.131 -9.869,22 -22,22 z m 180,-44 c 12.131,0 22,9.869 22,22 0,12.131 -9.869,22 -22,22 -12.131,0 -22,-9.869 -22,-22 0,-12.131 9.869,-22 22,-22 z m -148.786,0.365 c -8.454,-12.16 -23.179,-18.462 -38.079,-15.732 l -46.82,-112.659 31.177,-12.871 c 4.084,-1.686 6.028,-6.363 4.342,-10.447 -1.686,-4.085 -6.364,-6.027 -10.447,-4.342 L 106.176,309.199 84.066,256 l 50.476,-121.458 82.429,-34.256 66.999,66.999 -34.097,82.589 -54.391,22.455 c -8.092,3.34 -5.628,15.396 3.056,15.396 2.255,0 -0.243,0.752 42.721,-16.985 l -57.072,138.241 c -1.687,4.084 0.258,8.762 4.342,10.447 4.092,1.688 8.764,-0.264 10.447,-4.342 l 63.149,-152.961 82.589,-34.097 97.375,97.375 c -5.205,8.037 -7.235,17.765 -5.457,27.461 z M 474,368 c -12.131,0 -22,-9.869 -22,-22 0,-12.131 9.869,-22 22,-22 12.131,0 22,9.869 22,22 0,12.131 -9.869,22 -22,22 z"
         fill="#000000"
         data-original="#2c2c3d"
         class=""
         id="path34" /><path
         d="m 166.356,284.354 c -9.657,3.957 -3.909,18.891 6.167,14.765 4.088,-1.675 6.046,-6.347 4.371,-10.436 -1.616,-3.944 -6.164,-6.12 -10.538,-4.329 z"
         fill="#000000"
         data-original="#2c2c3d"
         class=""
         id="path36" /></g></g></svg>
