<?xml version="1.0" encoding="iso-8859-1"?>
<!-- Generator: Adobe Illustrator 19.0.0, SVG Export Plug-In . SVG Version: 6.00 Build 0)  -->
<svg version="1.1" id="Layer_1" xmlns="http://www.w3.org/2000/svg" xmlns:xlink="http://www.w3.org/1999/xlink" x="0px" y="0px"
	 viewBox="0 0 512 512" style="enable-background:new 0 0 512 512;" xml:space="preserve">
<path style="fill:#FD5D65;" d="M74.963,343.081H18.608v-83.569c0-73.364,59.481-132.845,132.845-132.845h268.955
	c41.04,0,74.314,33.274,74.314,74.314v142.1h-68.261"/>
<path style="fill:#E54E5C;" d="M185.048,126.666h-33.595c-73.364,0-132.845,59.481-132.845,132.845v83.569h33.595v-83.569
	C52.203,186.148,111.685,126.666,185.048,126.666z"/>
<g>
	<path style="fill:#CDEFF7;" d="M494.723,200.985v50.467h-22.542c-17.021,0-30.823-13.802-30.823-30.835v-36.355
		c0-10.973,8.888-19.861,19.861-19.861h23.893C491.229,175.201,494.723,187.686,494.723,200.985z"/>
	<path style="fill:#CDEFF7;" d="M134.989,164.397h255.402c10.043,0,18.183,8.14,18.183,18.183v31.594
		c0,10.043-8.14,18.183-18.183,18.183H67.028l0,0C67.028,194.823,97.455,164.397,134.989,164.397z"/>
</g>
<g>
	<circle style="fill:#515C6D;" cx="117.336" cy="343.086" r="42.38"/>
	<circle style="fill:#515C6D;" cx="384.092" cy="343.086" r="42.38"/>
</g>
<g>
	<circle style="fill:#D6E0EA;" cx="117.336" cy="343.086" r="16.674"/>
	<circle style="fill:#D6E0EA;" cx="384.092" cy="343.086" r="16.674"/>
</g>
<path d="M390.591,155.742H135.189c-42.211,0-76.551,34.341-76.551,76.551c0,4.745,3.846,8.591,8.591,8.591h323.363
	c14.763,0,26.774-12.011,26.774-26.774v-31.594C417.365,167.754,405.354,155.742,390.591,155.742z M220.429,172.923h50.144v50.78
	h-50.144V172.923z M203.248,223.703h-50.144v-50.78h50.144V223.703z M287.754,172.923h50.143v50.78h-50.143L287.754,172.923
	L287.754,172.923z M135.189,172.923h0.734v50.78H76.438C80.613,195.023,105.369,172.923,135.189,172.923z M400.184,214.11
	c0,5.29-4.303,9.593-9.593,9.593h-35.512v-50.78h35.512c5.29,0,9.593,4.303,9.593,9.593V214.11z"/>
<path d="M117.538,317.753c-13.932,0-25.266,11.334-25.266,25.266c0,13.931,11.334,25.264,25.266,25.264
	c13.931,0,25.264-11.334,25.264-25.264C142.802,329.085,131.468,317.753,117.538,317.753z M117.538,351.1
	c-4.458,0-8.084-3.626-8.084-8.083c0-4.458,3.626-8.084,8.084-8.084c4.457,0,8.083,3.626,8.083,8.084
	C125.621,347.474,121.995,351.1,117.538,351.1z"/>
<path d="M384.286,317.753c-13.931,0-25.264,11.334-25.264,25.266c0,13.931,11.334,25.264,25.264,25.264
	c13.932,0,25.266-11.334,25.266-25.264C409.552,329.085,398.218,317.753,384.286,317.753z M384.286,351.1
	c-4.457,0-8.083-3.626-8.083-8.083c0-4.458,3.626-8.084,8.083-8.084c4.458,0,8.084,3.626,8.084,8.084
	C392.371,347.474,388.744,351.1,384.286,351.1z"/>
<path d="M512,316.673c0-4.71-3.791-8.53-8.488-8.585V200.917c0-45.713-37.19-82.905-82.905-82.905H151.653
	c-77.988,0-141.436,63.449-141.436,141.436v48.634H8.591c-4.744,0-8.591,3.845-8.591,8.591s3.846,8.591,8.591,8.591h1.626v17.754
	c0,4.745,3.846,8.591,8.591,8.591h48.498c4.097,24.027,25.056,42.38,50.232,42.38s46.135-18.353,50.232-42.38h166.283
	c4.097,24.027,25.056,42.38,50.232,42.38c25.176,0,46.135-18.353,50.232-42.38h60.403c4.744,0,8.591-3.845,8.591-8.591v-17.76
	C508.209,325.202,512,321.383,512,316.673z M486.331,242.793h-13.948c-12.262,0-22.236-9.975-22.236-22.236v-36.361
	c0-6.216,5.057-11.273,11.273-11.273h18.636c4.018,8.499,6.276,17.985,6.276,27.993v41.877H486.331z M117.538,376.807
	c-18.632,0-33.79-15.157-33.79-33.79s15.157-33.79,33.79-33.79s33.79,15.157,33.79,33.79S136.17,376.807,117.538,376.807z
	 M384.286,376.807c-18.632,0-33.79-15.157-33.79-33.79s15.157-33.79,33.79-33.79s33.79,15.157,33.79,33.79
	S402.919,376.807,384.286,376.807z M434.518,334.426c-4.097-24.027-25.056-42.38-50.232-42.38s-46.135,18.353-50.232,42.38H167.77
	c-4.097-24.027-25.056-42.38-50.232-42.38s-46.135,18.353-50.232,42.38H27.398v-9.163H48.68c4.744,0,8.591-3.845,8.591-8.591
	s-3.846-8.591-8.591-8.591H27.398v-48.634c0-68.514,55.74-124.254,124.255-124.254h268.955c18.754,0,35.684,7.908,47.67,20.549
	h-6.858c-15.69,0-28.454,12.764-28.454,28.454v36.361c0,21.735,17.683,39.417,39.417,39.417h13.948v21.763h-8.121
	c-4.744,0-8.591,3.845-8.591,8.591s3.846,8.591,8.591,8.591h8.121v9.163h-23.01c-4.744,0-8.591,3.845-8.591,8.591
	s3.846,8.591,8.591,8.591h23.011v9.163L434.518,334.426L434.518,334.426z"/>
<g>
</g>
<g>
</g>
<g>
</g>
<g>
</g>
<g>
</g>
<g>
</g>
<g>
</g>
<g>
</g>
<g>
</g>
<g>
</g>
<g>
</g>
<g>
</g>
<g>
</g>
<g>
</g>
<g>
</g>
</svg>
